<?xml version="1.0" encoding="UTF-8" standalone="no"?>
<!DOCTYPE svg PUBLIC "-//W3C//DTD SVG 1.1//EN"
 "http://www.w3.org/Graphics/SVG/1.1/DTD/svg11.dtd">
<!-- Generated by graphviz version 2.43.0 (0)
 -->
<!-- Title: AI_Concepts Pages: 1 -->
<svg width="1395pt" height="566pt"
 viewBox="0.00 0.00 1394.69 566.00" xmlns="http://www.w3.org/2000/svg" xmlns:xlink="http://www.w3.org/1999/xlink">
<g id="graph0" class="graph" transform="scale(1 1) rotate(0) translate(4 562)">
<title>AI_Concepts</title>
<polygon fill="white" stroke="transparent" points="-4,4 -4,-562 1390.69,-562 1390.69,4 -4,4"/>
<!-- Supercomputing -->
<g id="node1" class="node">
<title>Supercomputing</title>
<ellipse fill="none" stroke="black" cx="1021.74" cy="-453" rx="87.99" ry="18"/>
<text text-anchor="middle" x="1021.74" y="-449.3" font-family="Times,serif" font-size="14.00">Supercomputing</text>
</g>
<!-- Transformer -->
<g id="node2" class="node">
<title>Transformer</title>
<ellipse fill="none" stroke="black" cx="988.74" cy="-366" rx="68.79" ry="18"/>
<text text-anchor="middle" x="988.74" y="-362.3" font-family="Times,serif" font-size="14.00">Transformer</text>
</g>
<!-- Supercomputing&#45;&gt;Transformer -->
<g id="edge1" class="edge">
<title>Supercomputing&#45;&gt;Transformer</title>
<path fill="none" stroke="black" d="M1015.06,-434.8C1010.5,-423.05 1004.36,-407.24 999.16,-393.84"/>
<polygon fill="black" stroke="black" points="1002.29,-392.23 995.41,-384.18 995.77,-394.76 1002.29,-392.23"/>
<text text-anchor="middle" x="1035.24" y="-405.8" font-family="Times,serif" font-size="14.00">enables</text>
</g>
<!-- Reinforcement_Learning -->
<g id="node3" class="node">
<title>Reinforcement_Learning</title>
<ellipse fill="none" stroke="black" cx="325.74" cy="-279" rx="124.58" ry="18"/>
<text text-anchor="middle" x="325.74" y="-275.3" font-family="Times,serif" font-size="14.00">Reinforcement_Learning</text>
</g>
<!-- Transformer&#45;&gt;Reinforcement_Learning -->
<g id="edge2" class="edge">
<title>Transformer&#45;&gt;Reinforcement_Learning</title>
<path fill="none" stroke="black" d="M919.98,-364.77C824.17,-363.39 645.42,-357 495.74,-330 456.37,-322.9 413.13,-310.11 380.11,-299.24"/>
<polygon fill="black" stroke="black" points="380.8,-295.78 370.21,-295.94 378.59,-302.42 380.8,-295.78"/>
<text text-anchor="middle" x="529.24" y="-318.8" font-family="Times,serif" font-size="14.00">enhances</text>
</g>
<!-- Diffusion_Models -->
<g id="node7" class="node">
<title>Diffusion_Models</title>
<ellipse fill="none" stroke="black" cx="988.74" cy="-279" rx="90.18" ry="18"/>
<text text-anchor="middle" x="988.74" y="-275.3" font-family="Times,serif" font-size="14.00">Diffusion_Models</text>
</g>
<!-- Transformer&#45;&gt;Diffusion_Models -->
<g id="edge6" class="edge">
<title>Transformer&#45;&gt;Diffusion_Models</title>
<path fill="none" stroke="black" d="M988.74,-347.8C988.74,-336.16 988.74,-320.55 988.74,-307.24"/>
<polygon fill="black" stroke="black" points="992.24,-307.18 988.74,-297.18 985.24,-307.18 992.24,-307.18"/>
<text text-anchor="middle" x="1014.74" y="-318.8" font-family="Times,serif" font-size="14.00">powers</text>
</g>
<!-- GANs -->
<g id="node8" class="node">
<title>GANs</title>
<ellipse fill="none" stroke="black" cx="1133.74" cy="-279" rx="37.09" ry="18"/>
<text text-anchor="middle" x="1133.74" y="-275.3" font-family="Times,serif" font-size="14.00">GANs</text>
</g>
<!-- Transformer&#45;&gt;GANs -->
<g id="edge7" class="edge">
<title>Transformer&#45;&gt;GANs</title>
<path fill="none" stroke="black" d="M1015.67,-349.21C1040.14,-334.87 1076.26,-313.7 1102.1,-298.55"/>
<polygon fill="black" stroke="black" points="1103.91,-301.54 1110.77,-293.46 1100.37,-295.5 1103.91,-301.54"/>
<text text-anchor="middle" x="1096.74" y="-318.8" font-family="Times,serif" font-size="14.00">used in</text>
</g>
<!-- RAG -->
<g id="node9" class="node">
<title>RAG</title>
<ellipse fill="none" stroke="black" cx="703.74" cy="-279" rx="31.4" ry="18"/>
<text text-anchor="middle" x="703.74" y="-275.3" font-family="Times,serif" font-size="14.00">RAG</text>
</g>
<!-- Transformer&#45;&gt;RAG -->
<g id="edge8" class="edge">
<title>Transformer&#45;&gt;RAG</title>
<path fill="none" stroke="black" d="M939.35,-353.32C889.45,-341.04 810.41,-320.31 743.74,-297 741.52,-296.22 739.24,-295.38 736.96,-294.51"/>
<polygon fill="black" stroke="black" points="738.24,-291.25 727.65,-290.77 735.63,-297.74 738.24,-291.25"/>
<text text-anchor="middle" x="905.74" y="-318.8" font-family="Times,serif" font-size="14.00">integrates with</text>
</g>
<!-- Planning -->
<g id="node4" class="node">
<title>Planning</title>
<ellipse fill="none" stroke="black" cx="185.74" cy="-192" rx="51.99" ry="18"/>
<text text-anchor="middle" x="185.74" y="-188.3" font-family="Times,serif" font-size="14.00">Planning</text>
</g>
<!-- Reinforcement_Learning&#45;&gt;Planning -->
<g id="edge3" class="edge">
<title>Reinforcement_Learning&#45;&gt;Planning</title>
<path fill="none" stroke="black" d="M298.42,-261.41C275.84,-247.7 243.68,-228.18 219.49,-213.49"/>
<polygon fill="black" stroke="black" points="221.01,-210.32 210.65,-208.12 217.38,-216.3 221.01,-210.32"/>
<text text-anchor="middle" x="299.74" y="-231.8" font-family="Times,serif" font-size="14.00">optimizes</text>
</g>
<!-- Meta_Learning -->
<g id="node5" class="node">
<title>Meta_Learning</title>
<ellipse fill="none" stroke="black" cx="561.74" cy="-105" rx="80.69" ry="18"/>
<text text-anchor="middle" x="561.74" y="-101.3" font-family="Times,serif" font-size="14.00">Meta_Learning</text>
</g>
<!-- Planning&#45;&gt;Meta_Learning -->
<g id="edge4" class="edge">
<title>Planning&#45;&gt;Meta_Learning</title>
<path fill="none" stroke="black" d="M228.14,-181.41C293.67,-166.6 420,-138.04 497,-120.64"/>
<polygon fill="black" stroke="black" points="498.08,-123.98 507.07,-118.36 496.54,-117.15 498.08,-123.98"/>
<text text-anchor="middle" x="411.74" y="-144.8" font-family="Times,serif" font-size="14.00">aids</text>
</g>
<!-- Fine_Tuning -->
<g id="node6" class="node">
<title>Fine_Tuning</title>
<ellipse fill="none" stroke="black" cx="938.74" cy="-18" rx="67.69" ry="18"/>
<text text-anchor="middle" x="938.74" y="-14.3" font-family="Times,serif" font-size="14.00">Fine_Tuning</text>
</g>
<!-- Meta_Learning&#45;&gt;Fine_Tuning -->
<g id="edge5" class="edge">
<title>Meta_Learning&#45;&gt;Fine_Tuning</title>
<path fill="none" stroke="black" d="M616.56,-91.64C686.48,-75.87 806.97,-48.71 879.12,-32.44"/>
<polygon fill="black" stroke="black" points="879.99,-35.84 888.97,-30.22 878.45,-29.01 879.99,-35.84"/>
<text text-anchor="middle" x="807.24" y="-57.8" font-family="Times,serif" font-size="14.00">improves</text>
</g>
<!-- High_Dimensionality -->
<g id="node13" class="node">
<title>High_Dimensionality</title>
<ellipse fill="none" stroke="black" cx="988.74" cy="-192" rx="107.48" ry="18"/>
<text text-anchor="middle" x="988.74" y="-188.3" font-family="Times,serif" font-size="14.00">High_Dimensionality</text>
</g>
<!-- Diffusion_Models&#45;&gt;High_Dimensionality -->
<g id="edge11" class="edge">
<title>Diffusion_Models&#45;&gt;High_Dimensionality</title>
<path fill="none" stroke="black" d="M988.74,-260.8C988.74,-249.16 988.74,-233.55 988.74,-220.24"/>
<polygon fill="black" stroke="black" points="992.24,-220.18 988.74,-210.18 985.24,-220.18 992.24,-220.18"/>
<text text-anchor="middle" x="1019.24" y="-231.8" font-family="Times,serif" font-size="14.00">requires</text>
</g>
<!-- NeRFs -->
<g id="node10" class="node">
<title>NeRFs</title>
<ellipse fill="none" stroke="black" cx="1221.74" cy="-192" rx="42.49" ry="18"/>
<text text-anchor="middle" x="1221.74" y="-188.3" font-family="Times,serif" font-size="14.00">NeRFs</text>
</g>
<!-- GANs&#45;&gt;NeRFs -->
<g id="edge9" class="edge">
<title>GANs&#45;&gt;NeRFs</title>
<path fill="none" stroke="black" d="M1149.88,-262.41C1163.32,-249.43 1182.64,-230.76 1197.87,-216.06"/>
<polygon fill="black" stroke="black" points="1200.64,-218.24 1205.4,-208.78 1195.78,-213.21 1200.64,-218.24"/>
<text text-anchor="middle" x="1218.74" y="-231.8" font-family="Times,serif" font-size="14.00">applies to</text>
</g>
<!-- Context -->
<g id="node15" class="node">
<title>Context</title>
<ellipse fill="none" stroke="black" cx="703.74" cy="-192" rx="47.39" ry="18"/>
<text text-anchor="middle" x="703.74" y="-188.3" font-family="Times,serif" font-size="14.00">Context</text>
</g>
<!-- RAG&#45;&gt;Context -->
<g id="edge14" class="edge">
<title>RAG&#45;&gt;Context</title>
<path fill="none" stroke="black" d="M703.74,-260.8C703.74,-249.16 703.74,-233.55 703.74,-220.24"/>
<polygon fill="black" stroke="black" points="707.24,-220.18 703.74,-210.18 700.24,-220.18 707.24,-220.18"/>
<text text-anchor="middle" x="739.24" y="-231.8" font-family="Times,serif" font-size="14.00">augments</text>
</g>
<!-- 3 -->
<g id="node11" class="node">
<title>3</title>
<ellipse fill="none" stroke="black" cx="1221.74" cy="-105" rx="27" ry="18"/>
<text text-anchor="middle" x="1221.74" y="-101.3" font-family="Times,serif" font-size="14.00">3</text>
</g>
<!-- NeRFs&#45;&gt;3 -->
<g id="edge10" class="edge">
<title>NeRFs&#45;&gt;3</title>
<path fill="none" stroke="black" d="M1221.74,-173.8C1221.74,-162.16 1221.74,-146.55 1221.74,-133.24"/>
<polygon fill="black" stroke="black" points="1225.24,-133.18 1221.74,-123.18 1218.24,-133.18 1225.24,-133.18"/>
</g>
<!-- D_Convergence -->
<g id="node12" class="node">
<title>D_Convergence</title>
<ellipse fill="none" stroke="black" cx="1332.74" cy="-540" rx="53.89" ry="18"/>
<text text-anchor="middle" x="1332.74" y="-536.3" font-family="Times,serif" font-size="14.00">advances</text>
</g>
<!-- Multimodal -->
<g id="node14" class="node">
<title>Multimodal</title>
<ellipse fill="none" stroke="black" cx="816.74" cy="-279" rx="63.89" ry="18"/>
<text text-anchor="middle" x="816.74" y="-275.3" font-family="Times,serif" font-size="14.00">Multimodal</text>
</g>
<!-- Multimodal&#45;&gt;High_Dimensionality -->
<g id="edge12" class="edge">
<title>Multimodal&#45;&gt;High_Dimensionality</title>
<path fill="none" stroke="black" d="M841.77,-262.45C858.9,-252.09 882.31,-238.51 903.74,-228 914.71,-222.62 926.72,-217.32 938.17,-212.55"/>
<polygon fill="black" stroke="black" points="939.7,-215.7 947.62,-208.67 937.04,-209.23 939.7,-215.7"/>
<text text-anchor="middle" x="944.24" y="-231.8" font-family="Times,serif" font-size="14.00">operates in</text>
</g>
<!-- Multimodal&#45;&gt;Context -->
<g id="edge13" class="edge">
<title>Multimodal&#45;&gt;Context</title>
<path fill="none" stroke="black" d="M806.82,-261.01C799.99,-250.44 790.11,-237.17 778.74,-228 769.4,-220.46 758.17,-214.12 747.28,-208.99"/>
<polygon fill="black" stroke="black" points="748.41,-205.66 737.85,-204.8 745.56,-212.06 748.41,-205.66"/>
<text text-anchor="middle" x="815.74" y="-231.8" font-family="Times,serif" font-size="14.00">builds</text>
</g>
<!-- Compression -->
<g id="node16" class="node">
<title>Compression</title>
<ellipse fill="none" stroke="black" cx="1198.74" cy="-453" rx="71.49" ry="18"/>
<text text-anchor="middle" x="1198.74" y="-449.3" font-family="Times,serif" font-size="14.00">Compression</text>
</g>
<!-- Compression&#45;&gt;Transformer -->
<g id="edge15" class="edge">
<title>Compression&#45;&gt;Transformer</title>
<path fill="none" stroke="black" d="M1162.64,-437.39C1126.97,-422.95 1072.29,-400.82 1033.79,-385.23"/>
<polygon fill="black" stroke="black" points="1034.95,-381.93 1024.37,-381.42 1032.33,-388.42 1034.95,-381.93"/>
<text text-anchor="middle" x="1141.74" y="-405.8" font-family="Times,serif" font-size="14.00">optimizes</text>
</g>
<!-- Compression&#45;&gt;High_Dimensionality -->
<g id="edge16" class="edge">
<title>Compression&#45;&gt;High_Dimensionality</title>
<path fill="none" stroke="black" d="M1202.57,-434.76C1209.59,-398.37 1220.3,-312.83 1179.74,-261 1156.64,-231.48 1119.71,-214.75 1084.45,-205.28"/>
<polygon fill="black" stroke="black" points="1085.12,-201.84 1074.57,-202.8 1083.41,-208.63 1085.12,-201.84"/>
<text text-anchor="middle" x="1236.24" y="-318.8" font-family="Times,serif" font-size="14.00">reduces</text>
</g>
<!-- Distillation -->
<g id="node17" class="node">
<title>Distillation</title>
<ellipse fill="none" stroke="black" cx="1198.74" cy="-540" rx="61.99" ry="18"/>
<text text-anchor="middle" x="1198.74" y="-536.3" font-family="Times,serif" font-size="14.00">Distillation</text>
</g>
<!-- Distillation&#45;&gt;Transformer -->
<g id="edge17" class="edge">
<title>Distillation&#45;&gt;Transformer</title>
<path fill="none" stroke="black" d="M1138.31,-535.99C1049.38,-530.16 889.96,-513.86 854.74,-471 824.33,-433.99 886.66,-402.03 936.16,-383.64"/>
<polygon fill="black" stroke="black" points="937.63,-386.82 945.85,-380.14 935.26,-380.24 937.63,-386.82"/>
<text text-anchor="middle" x="889.74" y="-449.3" font-family="Times,serif" font-size="14.00">applies to</text>
</g>
<!-- Distillation&#45;&gt;Fine_Tuning -->
<g id="edge19" class="edge">
<title>Distillation&#45;&gt;Fine_Tuning</title>
<path fill="none" stroke="black" d="M1238.34,-526.02C1269.17,-513.13 1306.74,-490.03 1306.74,-454 1306.74,-454 1306.74,-454 1306.74,-104 1306.74,-44.85 1123.94,-26.85 1016.01,-21.38"/>
<polygon fill="black" stroke="black" points="1015.97,-17.88 1005.81,-20.89 1015.63,-24.87 1015.97,-17.88"/>
<text text-anchor="middle" x="1339.24" y="-275.3" font-family="Times,serif" font-size="14.00">precedes</text>
</g>
<!-- Distillation&#45;&gt;Compression -->
<g id="edge18" class="edge">
<title>Distillation&#45;&gt;Compression</title>
<path fill="none" stroke="black" d="M1198.74,-521.8C1198.74,-510.16 1198.74,-494.55 1198.74,-481.24"/>
<polygon fill="black" stroke="black" points="1202.24,-481.18 1198.74,-471.18 1195.24,-481.18 1202.24,-481.18"/>
<text text-anchor="middle" x="1233.74" y="-492.8" font-family="Times,serif" font-size="14.00">related to</text>
</g>
<!-- Searching -->
<g id="node18" class="node">
<title>Searching</title>
<ellipse fill="none" stroke="black" cx="440.74" cy="-366" rx="57.69" ry="18"/>
<text text-anchor="middle" x="440.74" y="-362.3" font-family="Times,serif" font-size="14.00">Searching</text>
</g>
<!-- Searching&#45;&gt;Planning -->
<g id="edge21" class="edge">
<title>Searching&#45;&gt;Planning</title>
<path fill="none" stroke="black" d="M384.5,-361.78C303.7,-355.72 161.69,-339.19 136.74,-297 121.09,-270.53 142.03,-238.25 161.18,-216.74"/>
<polygon fill="black" stroke="black" points="163.83,-219.04 168.09,-209.33 158.71,-214.26 163.83,-219.04"/>
<text text-anchor="middle" x="164.24" y="-275.3" font-family="Times,serif" font-size="14.00">enables</text>
</g>
<!-- Searching&#45;&gt;RAG -->
<g id="edge20" class="edge">
<title>Searching&#45;&gt;RAG</title>
<path fill="none" stroke="black" d="M483.1,-353.53C528.29,-340.96 601.74,-319.56 663.74,-297 665.95,-296.19 668.22,-295.33 670.5,-294.44"/>
<polygon fill="black" stroke="black" points="671.85,-297.67 679.79,-290.67 669.21,-291.19 671.85,-297.67"/>
<text text-anchor="middle" x="635.74" y="-318.8" font-family="Times,serif" font-size="14.00">powers</text>
</g>
<!-- System_2_Thinking -->
<g id="node19" class="node">
<title>System_2_Thinking</title>
<ellipse fill="none" stroke="black" cx="100.74" cy="-366" rx="100.98" ry="18"/>
<text text-anchor="middle" x="100.74" y="-362.3" font-family="Times,serif" font-size="14.00">System_2_Thinking</text>
</g>
<!-- System_2_Thinking&#45;&gt;Reinforcement_Learning -->
<g id="edge22" class="edge">
<title>System_2_Thinking&#45;&gt;Reinforcement_Learning</title>
<path fill="none" stroke="black" d="M141.75,-349.51C178.95,-335.46 233.95,-314.68 274.13,-299.5"/>
<polygon fill="black" stroke="black" points="275.37,-302.77 283.49,-295.96 272.9,-296.22 275.37,-302.77"/>
<text text-anchor="middle" x="241.74" y="-318.8" font-family="Times,serif" font-size="14.00">aids</text>
</g>
<!-- System_2_Thinking&#45;&gt;Planning -->
<g id="edge23" class="edge">
<title>System_2_Thinking&#45;&gt;Planning</title>
<path fill="none" stroke="black" d="M78.37,-348.23C53.55,-327.51 19.38,-291.29 38.74,-261 58.78,-229.65 97.37,-212.54 129.99,-203.33"/>
<polygon fill="black" stroke="black" points="131.11,-206.65 139.89,-200.72 129.33,-199.88 131.11,-206.65"/>
<text text-anchor="middle" x="72.24" y="-275.3" font-family="Times,serif" font-size="14.00">enhances</text>
</g>
<!-- Episodic_Memory -->
<g id="node20" class="node">
<title>Episodic_Memory</title>
<ellipse fill="none" stroke="black" cx="561.74" cy="-279" rx="92.88" ry="18"/>
<text text-anchor="middle" x="561.74" y="-275.3" font-family="Times,serif" font-size="14.00">Episodic_Memory</text>
</g>
<!-- Episodic_Memory&#45;&gt;Meta_Learning -->
<g id="edge25" class="edge">
<title>Episodic_Memory&#45;&gt;Meta_Learning</title>
<path fill="none" stroke="black" d="M561.74,-260.88C561.74,-231 561.74,-169.11 561.74,-133.27"/>
<polygon fill="black" stroke="black" points="565.24,-133.05 561.74,-123.05 558.24,-133.05 565.24,-133.05"/>
<text text-anchor="middle" x="595.24" y="-188.3" font-family="Times,serif" font-size="14.00">enhances</text>
</g>
<!-- Episodic_Memory&#45;&gt;Context -->
<g id="edge24" class="edge">
<title>Episodic_Memory&#45;&gt;Context</title>
<path fill="none" stroke="black" d="M584.25,-261.45C598.43,-251.31 617.3,-238.34 634.74,-228 644.65,-222.13 655.66,-216.26 665.93,-211.06"/>
<polygon fill="black" stroke="black" points="667.71,-214.08 675.09,-206.48 664.58,-207.82 667.71,-214.08"/>
<text text-anchor="middle" x="667.24" y="-231.8" font-family="Times,serif" font-size="14.00">retrieves</text>
</g>
</g>
</svg>
