<?xml version="1.0" encoding="UTF-8" standalone="no"?>
<!DOCTYPE svg PUBLIC "-//W3C//DTD SVG 1.1//EN"
 "http://www.w3.org/Graphics/SVG/1.1/DTD/svg11.dtd">
<!-- Generated by graphviz version 2.43.0 (0)
 -->
<!-- Title: AI_Concepts Pages: 1 -->
<svg width="956pt" height="566pt"
 viewBox="0.00 0.00 956.19 566.00" xmlns="http://www.w3.org/2000/svg" xmlns:xlink="http://www.w3.org/1999/xlink">
<g id="graph0" class="graph" transform="scale(1 1) rotate(0) translate(4 562)">
<title>AI_Concepts</title>
<polygon fill="white" stroke="transparent" points="-4,4 -4,-562 952.19,-562 952.19,4 -4,4"/>
<!-- Supercomputing -->
<g id="node1" class="node">
<title>Supercomputing</title>
<ellipse fill="none" stroke="black" cx="408.25" cy="-453" rx="87.99" ry="18"/>
<text text-anchor="middle" x="408.25" y="-449.3" font-family="Times,serif" font-size="14.00">Supercomputing</text>
</g>
<!-- Transformer -->
<g id="node2" class="node">
<title>Transformer</title>
<ellipse fill="none" stroke="black" cx="408.25" cy="-366" rx="68.79" ry="18"/>
<text text-anchor="middle" x="408.25" y="-362.3" font-family="Times,serif" font-size="14.00">Transformer</text>
</g>
<!-- Supercomputing&#45;&gt;Transformer -->
<g id="edge1" class="edge">
<title>Supercomputing&#45;&gt;Transformer</title>
<path fill="none" stroke="black" d="M408.25,-434.8C408.25,-423.16 408.25,-407.55 408.25,-394.24"/>
<polygon fill="black" stroke="black" points="411.75,-394.18 408.25,-384.18 404.75,-394.18 411.75,-394.18"/>
<text text-anchor="middle" x="435.75" y="-405.8" font-family="Times,serif" font-size="14.00">enables</text>
</g>
<!-- Reinforcement_Learning -->
<g id="node3" class="node">
<title>Reinforcement_Learning</title>
<ellipse fill="none" stroke="black" cx="222.25" cy="-279" rx="124.58" ry="18"/>
<text text-anchor="middle" x="222.25" y="-275.3" font-family="Times,serif" font-size="14.00">Reinforcement_Learning</text>
</g>
<!-- Transformer&#45;&gt;Reinforcement_Learning -->
<g id="edge2" class="edge">
<title>Transformer&#45;&gt;Reinforcement_Learning</title>
<path fill="none" stroke="black" d="M374.81,-350.1C360.99,-343.92 344.83,-336.65 330.25,-330 309.24,-320.43 286,-309.69 266.48,-300.62"/>
<polygon fill="black" stroke="black" points="267.76,-297.36 257.22,-296.32 264.81,-303.71 267.76,-297.36"/>
<text text-anchor="middle" x="363.75" y="-318.8" font-family="Times,serif" font-size="14.00">enhances</text>
</g>
<!-- Diffusion_Models -->
<g id="node7" class="node">
<title>Diffusion_Models</title>
<ellipse fill="none" stroke="black" cx="681.25" cy="-279" rx="90.18" ry="18"/>
<text text-anchor="middle" x="681.25" y="-275.3" font-family="Times,serif" font-size="14.00">Diffusion_Models</text>
</g>
<!-- Transformer&#45;&gt;Diffusion_Models -->
<g id="edge6" class="edge">
<title>Transformer&#45;&gt;Diffusion_Models</title>
<path fill="none" stroke="black" d="M450.9,-351.72C497.82,-337.11 573.4,-313.58 625.1,-297.48"/>
<polygon fill="black" stroke="black" points="626.27,-300.78 634.78,-294.47 624.19,-294.1 626.27,-300.78"/>
<text text-anchor="middle" x="586.25" y="-318.8" font-family="Times,serif" font-size="14.00">powers</text>
</g>
<!-- GANs -->
<g id="node8" class="node">
<title>GANs</title>
<ellipse fill="none" stroke="black" cx="42.25" cy="-279" rx="37.09" ry="18"/>
<text text-anchor="middle" x="42.25" y="-275.3" font-family="Times,serif" font-size="14.00">GANs</text>
</g>
<!-- Transformer&#45;&gt;GANs -->
<g id="edge7" class="edge">
<title>Transformer&#45;&gt;GANs</title>
<path fill="none" stroke="black" d="M351.86,-355.57C287.45,-344.21 179.22,-323.33 88.25,-297 85.49,-296.2 82.65,-295.32 79.82,-294.39"/>
<polygon fill="black" stroke="black" points="80.85,-291.04 70.25,-291.08 78.56,-297.65 80.85,-291.04"/>
<text text-anchor="middle" x="244.25" y="-318.8" font-family="Times,serif" font-size="14.00">used in</text>
</g>
<!-- RAG -->
<g id="node9" class="node">
<title>RAG</title>
<ellipse fill="none" stroke="black" cx="396.25" cy="-279" rx="31.4" ry="18"/>
<text text-anchor="middle" x="396.25" y="-275.3" font-family="Times,serif" font-size="14.00">RAG</text>
</g>
<!-- Transformer&#45;&gt;RAG -->
<g id="edge8" class="edge">
<title>Transformer&#45;&gt;RAG</title>
<path fill="none" stroke="black" d="M405.82,-347.8C404.18,-336.16 401.97,-320.55 400.09,-307.24"/>
<polygon fill="black" stroke="black" points="403.53,-306.59 398.67,-297.18 396.6,-307.57 403.53,-306.59"/>
<text text-anchor="middle" x="457.25" y="-318.8" font-family="Times,serif" font-size="14.00">integrates with</text>
</g>
<!-- Planning -->
<g id="node4" class="node">
<title>Planning</title>
<ellipse fill="none" stroke="black" cx="323.25" cy="-192" rx="51.99" ry="18"/>
<text text-anchor="middle" x="323.25" y="-188.3" font-family="Times,serif" font-size="14.00">Planning</text>
</g>
<!-- Reinforcement_Learning&#45;&gt;Planning -->
<g id="edge3" class="edge">
<title>Reinforcement_Learning&#45;&gt;Planning</title>
<path fill="none" stroke="black" d="M242.2,-261.21C257.71,-248.15 279.39,-229.91 296.42,-215.58"/>
<polygon fill="black" stroke="black" points="298.96,-218.01 304.36,-208.9 294.45,-212.66 298.96,-218.01"/>
<text text-anchor="middle" x="313.25" y="-231.8" font-family="Times,serif" font-size="14.00">optimizes</text>
</g>
<!-- Meta_Learning -->
<g id="node5" class="node">
<title>Meta_Learning</title>
<ellipse fill="none" stroke="black" cx="543.25" cy="-105" rx="80.69" ry="18"/>
<text text-anchor="middle" x="543.25" y="-101.3" font-family="Times,serif" font-size="14.00">Meta_Learning</text>
</g>
<!-- Planning&#45;&gt;Meta_Learning -->
<g id="edge4" class="edge">
<title>Planning&#45;&gt;Meta_Learning</title>
<path fill="none" stroke="black" d="M356.66,-178.09C393.57,-163.83 453.33,-140.74 495.24,-124.55"/>
<polygon fill="black" stroke="black" points="496.63,-127.76 504.7,-120.89 494.11,-121.23 496.63,-127.76"/>
<text text-anchor="middle" x="461.25" y="-144.8" font-family="Times,serif" font-size="14.00">aids</text>
</g>
<!-- Fine_Tuning -->
<g id="node6" class="node">
<title>Fine_Tuning</title>
<ellipse fill="none" stroke="black" cx="707.25" cy="-18" rx="67.69" ry="18"/>
<text text-anchor="middle" x="707.25" y="-14.3" font-family="Times,serif" font-size="14.00">Fine_Tuning</text>
</g>
<!-- Meta_Learning&#45;&gt;Fine_Tuning -->
<g id="edge5" class="edge">
<title>Meta_Learning&#45;&gt;Fine_Tuning</title>
<path fill="none" stroke="black" d="M573.71,-88.21C600.54,-74.31 639.75,-53.98 668.75,-38.95"/>
<polygon fill="black" stroke="black" points="670.51,-41.98 677.77,-34.27 667.29,-35.77 670.51,-41.98"/>
<text text-anchor="middle" x="667.75" y="-57.8" font-family="Times,serif" font-size="14.00">improves</text>
</g>
<!-- High_Dimensionality -->
<g id="node13" class="node">
<title>High_Dimensionality</title>
<ellipse fill="none" stroke="black" cx="681.25" cy="-192" rx="107.48" ry="18"/>
<text text-anchor="middle" x="681.25" y="-188.3" font-family="Times,serif" font-size="14.00">High_Dimensionality</text>
</g>
<!-- Diffusion_Models&#45;&gt;High_Dimensionality -->
<g id="edge11" class="edge">
<title>Diffusion_Models&#45;&gt;High_Dimensionality</title>
<path fill="none" stroke="black" d="M681.25,-260.8C681.25,-249.16 681.25,-233.55 681.25,-220.24"/>
<polygon fill="black" stroke="black" points="684.75,-220.18 681.25,-210.18 677.75,-220.18 684.75,-220.18"/>
<text text-anchor="middle" x="711.75" y="-231.8" font-family="Times,serif" font-size="14.00">requires</text>
</g>
<!-- NeRFs -->
<g id="node10" class="node">
<title>NeRFs</title>
<ellipse fill="none" stroke="black" cx="42.25" cy="-192" rx="42.49" ry="18"/>
<text text-anchor="middle" x="42.25" y="-188.3" font-family="Times,serif" font-size="14.00">NeRFs</text>
</g>
<!-- GANs&#45;&gt;NeRFs -->
<g id="edge9" class="edge">
<title>GANs&#45;&gt;NeRFs</title>
<path fill="none" stroke="black" d="M42.25,-260.8C42.25,-249.16 42.25,-233.55 42.25,-220.24"/>
<polygon fill="black" stroke="black" points="45.75,-220.18 42.25,-210.18 38.75,-220.18 45.75,-220.18"/>
<text text-anchor="middle" x="77.25" y="-231.8" font-family="Times,serif" font-size="14.00">applies to</text>
</g>
<!-- Context -->
<g id="node15" class="node">
<title>Context</title>
<ellipse fill="none" stroke="black" cx="504.25" cy="-192" rx="47.39" ry="18"/>
<text text-anchor="middle" x="504.25" y="-188.3" font-family="Times,serif" font-size="14.00">Context</text>
</g>
<!-- RAG&#45;&gt;Context -->
<g id="edge14" class="edge">
<title>RAG&#45;&gt;Context</title>
<path fill="none" stroke="black" d="M404.86,-261.49C411.07,-250.85 420.26,-237.32 431.25,-228 440.12,-220.47 450.88,-214.16 461.39,-209.05"/>
<polygon fill="black" stroke="black" points="462.86,-212.23 470.5,-204.88 459.95,-205.86 462.86,-212.23"/>
<text text-anchor="middle" x="466.75" y="-231.8" font-family="Times,serif" font-size="14.00">augments</text>
</g>
<!-- 3 -->
<g id="node11" class="node">
<title>3</title>
<ellipse fill="none" stroke="black" cx="42.25" cy="-105" rx="27" ry="18"/>
<text text-anchor="middle" x="42.25" y="-101.3" font-family="Times,serif" font-size="14.00">3</text>
</g>
<!-- NeRFs&#45;&gt;3 -->
<g id="edge10" class="edge">
<title>NeRFs&#45;&gt;3</title>
<path fill="none" stroke="black" d="M42.25,-173.8C42.25,-162.16 42.25,-146.55 42.25,-133.24"/>
<polygon fill="black" stroke="black" points="45.75,-133.18 42.25,-123.18 38.75,-133.18 45.75,-133.18"/>
</g>
<!-- D_Convergence -->
<g id="node12" class="node">
<title>D_Convergence</title>
<ellipse fill="none" stroke="black" cx="894.25" cy="-540" rx="53.89" ry="18"/>
<text text-anchor="middle" x="894.25" y="-536.3" font-family="Times,serif" font-size="14.00">advances</text>
</g>
<!-- Multimodal -->
<g id="node14" class="node">
<title>Multimodal</title>
<ellipse fill="none" stroke="black" cx="509.25" cy="-279" rx="63.89" ry="18"/>
<text text-anchor="middle" x="509.25" y="-275.3" font-family="Times,serif" font-size="14.00">Multimodal</text>
</g>
<!-- Multimodal&#45;&gt;High_Dimensionality -->
<g id="edge12" class="edge">
<title>Multimodal&#45;&gt;High_Dimensionality</title>
<path fill="none" stroke="black" d="M534.28,-262.45C551.41,-252.09 574.82,-238.51 596.25,-228 607.22,-222.62 619.23,-217.32 630.67,-212.55"/>
<polygon fill="black" stroke="black" points="632.2,-215.7 640.12,-208.67 629.54,-209.23 632.2,-215.7"/>
<text text-anchor="middle" x="636.75" y="-231.8" font-family="Times,serif" font-size="14.00">operates in</text>
</g>
<!-- Multimodal&#45;&gt;Context -->
<g id="edge13" class="edge">
<title>Multimodal&#45;&gt;Context</title>
<path fill="none" stroke="black" d="M508.23,-260.8C507.55,-249.16 506.63,-233.55 505.85,-220.24"/>
<polygon fill="black" stroke="black" points="509.34,-219.95 505.26,-210.18 502.35,-220.36 509.34,-219.95"/>
<text text-anchor="middle" x="528.25" y="-231.8" font-family="Times,serif" font-size="14.00">builds</text>
</g>
<!-- Compression -->
<g id="node16" class="node">
<title>Compression</title>
<ellipse fill="none" stroke="black" cx="760.25" cy="-453" rx="71.49" ry="18"/>
<text text-anchor="middle" x="760.25" y="-449.3" font-family="Times,serif" font-size="14.00">Compression</text>
</g>
<!-- Compression&#45;&gt;Transformer -->
<g id="edge15" class="edge">
<title>Compression&#45;&gt;Transformer</title>
<path fill="none" stroke="black" d="M718.45,-438.28C684.65,-427.49 635.71,-412.57 592.25,-402 553.71,-392.63 510.13,-384.24 475.06,-378.03"/>
<polygon fill="black" stroke="black" points="475.39,-374.53 464.94,-376.25 474.18,-381.43 475.39,-374.53"/>
<text text-anchor="middle" x="682.25" y="-405.8" font-family="Times,serif" font-size="14.00">optimizes</text>
</g>
<!-- Compression&#45;&gt;High_Dimensionality -->
<g id="edge16" class="edge">
<title>Compression&#45;&gt;High_Dimensionality</title>
<path fill="none" stroke="black" d="M767.43,-434.83C780.71,-400.36 805.57,-320.88 780.25,-261 771.26,-239.77 751.57,-224.19 732.1,-213.34"/>
<polygon fill="black" stroke="black" points="733.69,-210.23 723.21,-208.69 730.45,-216.43 733.69,-210.23"/>
<text text-anchor="middle" x="818.75" y="-318.8" font-family="Times,serif" font-size="14.00">reduces</text>
</g>
<!-- Distillation -->
<g id="node17" class="node">
<title>Distillation</title>
<ellipse fill="none" stroke="black" cx="760.25" cy="-540" rx="61.99" ry="18"/>
<text text-anchor="middle" x="760.25" y="-536.3" font-family="Times,serif" font-size="14.00">Distillation</text>
</g>
<!-- Distillation&#45;&gt;Transformer -->
<g id="edge17" class="edge">
<title>Distillation&#45;&gt;Transformer</title>
<path fill="none" stroke="black" d="M727.25,-524.61C696.72,-511.16 650.14,-490.3 610.25,-471 552.43,-443.03 486.45,-408.57 446.07,-387.19"/>
<polygon fill="black" stroke="black" points="447.59,-384.04 437.12,-382.44 444.31,-390.22 447.59,-384.04"/>
<text text-anchor="middle" x="645.25" y="-449.3" font-family="Times,serif" font-size="14.00">applies to</text>
</g>
<!-- Distillation&#45;&gt;Fine_Tuning -->
<g id="edge19" class="edge">
<title>Distillation&#45;&gt;Fine_Tuning</title>
<path fill="none" stroke="black" d="M800.95,-526.33C832.63,-513.64 871.25,-490.65 871.25,-454 871.25,-454 871.25,-454 871.25,-104 871.25,-59.28 822.58,-38.06 778.27,-28"/>
<polygon fill="black" stroke="black" points="778.82,-24.54 768.31,-25.91 777.38,-31.39 778.82,-24.54"/>
<text text-anchor="middle" x="903.75" y="-275.3" font-family="Times,serif" font-size="14.00">precedes</text>
</g>
<!-- Distillation&#45;&gt;Compression -->
<g id="edge18" class="edge">
<title>Distillation&#45;&gt;Compression</title>
<path fill="none" stroke="black" d="M760.25,-521.8C760.25,-510.16 760.25,-494.55 760.25,-481.24"/>
<polygon fill="black" stroke="black" points="763.75,-481.18 760.25,-471.18 756.75,-481.18 763.75,-481.18"/>
<text text-anchor="middle" x="795.25" y="-492.8" font-family="Times,serif" font-size="14.00">related to</text>
</g>
</g>
</svg>
